<?xml version="1.0" encoding="UTF-8"?><svg id="Layer_2" xmlns="http://www.w3.org/2000/svg" viewBox="0 0 444.2 295.15"><defs><style>.cls-1{font-family:Aileron-Regular, Aileron;font-size:39.95px;}.cls-1,.cls-2{fill:#fff;}.cls-3{letter-spacing:-.01em;}.cls-4{fill:#eb5d81;}.cls-4,.cls-2{stroke-width:0px;}.cls-2{opacity:.02;}</style></defs><g id="Layer_1-2"><path class="cls-2" d="m110.46,39.15l-8.03,13.11c-.27.44-.76.71-1.29.71s-1-.27-1.28-.71l-7.21-11.75-.83-1.35c-.43-.71-.21-1.63.49-2.06s1.63-.21,2.06.49l.36.58,4.9,7.99v-17.67c.99-.9,1.98-1.77,3-2.62v20.29l5.25-8.57c.43-.71,1.36-.93,2.07-.49.71.43.93,1.35.49,2.06Z"/><path class="cls-2" d="m132.98,25.45c-.24.15-.51.22-.77.22-.51,0-1-.26-1.29-.71l-5.26-8.57v35.1c0,.83-.67,1.5-1.5,1.5s-1.5-.67-1.5-1.5V16.38l-5.26,8.57c-.43.71-1.35.93-2.06.49-.71-.43-.93-1.35-.49-2.06l2.42-3.94,3.74-6.11c1.57-.87,3.17-1.68,4.79-2.46l1.79,2.92,5.89,9.59c.43.71.2,1.63-.5,2.06Z"/><path class="cls-2" d="m145.73,52.26c.27.44.76.72,1.28.72s1.01-.27,1.28-.72l8.04-13.1c.43-.71.21-1.63-.49-2.06-.71-.43-1.63-.21-2.06.49l-5.26,8.57V11.07c0-.83-.67-1.5-1.5-1.5s-1.5.67-1.5,1.5v35.1l-5.26-8.57c-.43-.71-1.36-.93-2.06-.49-.71.43-.93,1.36-.49,2.06l8.04,13.1Z"/><path class="cls-2" d="m161.2,25.45c.24.15.52.22.78.22.5,0,1-.25,1.28-.72l5.26-8.57v35.1c0,.83.67,1.5,1.5,1.5s1.5-.67,1.5-1.5V16.38l5.26,8.57c.43.71,1.36.93,2.06.49.71-.43.93-1.36.49-2.06l-8.04-13.1c-.27-.44-.76-.72-1.28-.72s-1.01.27-1.28.72l-8.04,13.1c-.43.71-.21,1.63.49,2.06Z"/><path class="cls-2" d="m191.59,52.26c.27.44.76.72,1.28.72s1.01-.27,1.28-.72l8.04-13.1c.43-.71.21-1.63-.49-2.06s-1.63-.21-2.06.49l-5.26,8.57V11.07c0-.83-.67-1.5-1.5-1.5s-1.5.67-1.5,1.5v35.1l-5.26-8.57c-.43-.71-1.36-.93-2.06-.49-.71.43-.93,1.36-.49,2.06l8.04,13.1Z"/><path class="cls-2" d="m207.06,25.45c.24.15.52.22.78.22.5,0,1-.25,1.28-.72l5.26-8.57v35.1c0,.83.67,1.5,1.5,1.5s1.5-.67,1.5-1.5V16.38l5.26,8.57c.43.71,1.36.93,2.06.49.71-.43.93-1.36.49-2.06l-8.04-13.1c-.27-.44-.76-.72-1.28-.72s-1.01.27-1.28.72l-8.04,13.1c-.43.71-.21,1.63.49,2.06Z"/><path class="cls-2" d="m248.04,39.15l-8.04,13.11c-.27.44-.75.71-1.28.71s-1-.27-1.28-.71l-7-11.41-1.04-1.69c-.43-.71-.21-1.63.49-2.06.29-.18.62-.25.94-.21h0c.45.04.86.3,1.11.71l.15.25,2.14,3.48,2.97,4.84v-25.97c1.01.71,2.02,1.44,3,2.19v23.79l5.26-8.57c.43-.71,1.36-.93,2.07-.49.71.43.93,1.35.49,2.06Z"/><path class="cls-2" d="m87.16,87.41c-.71-.43-1.63-.21-2.06.49l-5.26,8.57v-35.1c0-.83-.67-1.5-1.5-1.5s-1.5.67-1.5,1.5v35.1l-5.26-8.57c-.43-.71-1.36-.93-2.06-.49-.71.43-.93,1.36-.49,2.06l8.04,13.1c.27.44.76.72,1.28.72s1.01-.27,1.28-.72l8.04-13.1c.43-.71.21-1.63-.49-2.06Z"/><path class="cls-2" d="m102.63,60.6c-.27-.44-.76-.72-1.28-.72s-1.01.27-1.28.72l-8.04,13.1c-.43.71-.21,1.63.49,2.06.24.15.52.22.78.22.5,0,1-.25,1.28-.72l5.26-8.57v35.1c0,.83.67,1.5,1.5,1.5s1.5-.67,1.5-1.5v-35.1l5.26,8.57c.43.71,1.36.93,2.06.49.71-.43.93-1.36.49-2.06l-8.04-13.1Z"/><path class="cls-2" d="m133.02,87.41c-.71-.43-1.63-.21-2.06.49l-5.26,8.57v-35.1c0-.83-.67-1.5-1.5-1.5s-1.5.67-1.5,1.5v35.1l-5.26-8.57c-.43-.71-1.36-.93-2.06-.49-.71.43-.93,1.36-.49,2.06l8.04,13.1c.27.44.76.72,1.28.72s1.01-.27,1.28-.72l8.04-13.1c.43-.71.21-1.63-.49-2.06Z"/><path class="cls-2" d="m148.49,60.6c-.27-.44-.76-.72-1.28-.72s-1.01.27-1.28.72l-8.04,13.1c-.43.71-.21,1.63.49,2.06.24.15.52.22.78.22.5,0,1-.25,1.28-.72l5.26-8.57v35.1c0,.83.67,1.5,1.5,1.5s1.5-.67,1.5-1.5v-35.1l5.26,8.57c.43.71,1.36.93,2.06.49.71-.43.93-1.36.49-2.06l-8.04-13.1Z"/><path class="cls-2" d="m178.88,87.41c-.71-.43-1.63-.21-2.06.49l-5.26,8.57v-35.1c0-.83-.67-1.5-1.5-1.5s-1.5.67-1.5,1.5v35.1l-5.26-8.57c-.43-.71-1.36-.93-2.06-.49-.71.43-.93,1.36-.49,2.06l8.04,13.1c.27.44.76.72,1.28.72s1.01-.27,1.28-.72l8.04-13.1c.43-.71.21-1.63-.49-2.06Z"/><path class="cls-2" d="m194.35,60.6c-.27-.44-.76-.72-1.28-.72s-1.01.27-1.28.72l-8.04,13.1c-.43.71-.21,1.63.49,2.06s1.63.21,2.06-.49l5.26-8.57v35.1c0,.83.67,1.5,1.5,1.5s1.5-.67,1.5-1.5v-35.1l5.26,8.57c.28.46.78.72,1.28.72.27,0,.54-.07.78-.22.71-.43.93-1.36.49-2.06l-8.04-13.1Z"/><path class="cls-2" d="m224.74,87.41c-.71-.43-1.63-.21-2.06.49l-5.26,8.57v-35.1c0-.83-.67-1.5-1.5-1.5s-1.5.67-1.5,1.5v35.1l-5.26-8.57c-.43-.71-1.36-.93-2.06-.49-.71.43-.93,1.36-.49,2.06l8.04,13.1c.27.44.76.72,1.28.72s1.01-.27,1.28-.72l8.04-13.1c.43-.71.21-1.63-.49-2.06Z"/><path class="cls-2" d="m240.21,60.6c-.27-.44-.76-.72-1.28-.72s-1.01.27-1.28.72l-8.04,13.1c-.43.71-.21,1.63.49,2.06.71.43,1.63.21,2.06-.49l5.26-8.57v35.1c0,.83.67,1.5,1.5,1.5s1.5-.67,1.5-1.5v-35.1l5.26,8.57c.28.46.78.72,1.28.72.27,0,.54-.07.78-.22.71-.43.93-1.36.49-2.06l-8.04-13.1Z"/><path class="cls-2" d="m270.6,87.41c-.71-.43-1.63-.21-2.06.49l-5.26,8.57v-35.1c0-.83-.67-1.5-1.5-1.5s-1.5.67-1.5,1.5v35.1l-5.26-8.57c-.43-.71-1.36-.93-2.06-.49-.71.43-.93,1.36-.49,2.06l8.04,13.1c.27.44.76.72,1.28.72s1.01-.27,1.28-.72l8.04-13.1c.43-.71.21-1.63-.49-2.06Z"/><path class="cls-2" d="m286.08,60.6c-.27-.44-.76-.72-1.28-.72s-1.01.27-1.28.72l-8.04,13.1c-.43.71-.21,1.63.49,2.06.24.15.52.22.78.22.5,0,1-.25,1.28-.72l5.26-8.57v35.1c0,.83.67,1.5,1.5,1.5s1.5-.67,1.5-1.5v-35.1l5.26,8.57c.43.71,1.36.93,2.06.49s.93-1.36.49-2.06l-8.04-13.1Z"/><path class="cls-2" d="m316.46,87.41c-.71-.43-1.63-.21-2.06.49l-5.26,8.57v-35.1c0-.83-.67-1.5-1.5-1.5s-1.5.67-1.5,1.5v35.1l-5.26-8.57c-.43-.71-1.36-.93-2.06-.49-.71.43-.93,1.36-.49,2.06l8.04,13.1c.27.44.76.72,1.28.72s1.01-.27,1.28-.72l8.04-13.1c.43-.71.21-1.63-.49-2.06Z"/><path class="cls-2" d="m339.48,75.76c-.71.43-1.63.21-2.06-.49l-5.26-8.57v35.1c0,.83-.67,1.5-1.5,1.5s-1.5-.67-1.5-1.5v-35.1l-5.26,8.57c-.29.47-.78.71-1.29.71-.26,0-.54-.07-.78-.22-.71-.43-.93-1.35-.49-2.06l6.43-10.49,1.6-2.61c.07-.11.14-.2.24-.29,1.06.53,2.12,1.07,3.16,1.65l3.9,6.36,3.3,5.39c.43.71.21,1.63-.49,2.06Z"/><path class="cls-2" d="m362.12,90.61l-2.03,3.31-5.31,8.65c-.27.44-.76.71-1.28.71s-1-.27-1.28-.71l-8.04-13.11c-.43-.71-.2-1.63.5-2.06.71-.43,1.63-.21,2.06.49l5.26,8.58v-19.52c1.03,1.11,2.03,2.26,3,3.43v16.09l3.38-5.51,1.88-3.07c.03-.06.08-.11.11-.16.6.94,1.18,1.9,1.75,2.87Z"/><path class="cls-2" d="m41.27,124.73c-.71.43-1.63.21-2.07-.49l-5.26-8.58v35.1c0,.83-.67,1.5-1.5,1.5s-1.5-.66-1.5-1.5v-35.1l-1.53,2.5h0l-3.72,6.08c-.28.46-.77.71-1.28.71-.27,0-.54-.08-.78-.22-.07-.04-.13-.09-.19-.14-.15-.12-.27-.28-.36-.45-.24-.45-.23-1.01.05-1.47l.31-.5,4.35-7.1h0c2.03-1.73,4.12-3.37,6.27-4.93l1.79,2.91,5.91,9.62c.43.71.21,1.63-.49,2.07Z"/><path class="cls-2" d="m54.01,151.54c.27.44.76.72,1.28.72s1.01-.27,1.28-.72l8.04-13.1c.43-.71.21-1.63-.49-2.06-.71-.43-1.63-.21-2.06.49l-5.26,8.57v-35.1c0-.83-.67-1.5-1.5-1.5s-1.5.67-1.5,1.5v35.1l-5.26-8.57c-.43-.71-1.36-.93-2.06-.49s-.93,1.36-.49,2.06l8.04,13.1Z"/><path class="cls-2" d="m69.48,124.73c.71.43,1.63.21,2.06-.49l5.26-8.57v35.1c0,.83.67,1.5,1.5,1.5s1.5-.67,1.5-1.5v-35.1l5.26,8.57c.28.46.78.72,1.28.72.27,0,.54-.07.78-.22.71-.43.93-1.36.49-2.06l-8.04-13.1c-.27-.44-.76-.72-1.28-.72s-1.01.27-1.28.72l-8.04,13.1c-.43.71-.21,1.63.49,2.06Z"/><path class="cls-2" d="m99.87,151.54c.27.44.76.72,1.28.72s1.01-.27,1.28-.72l8.04-13.1c.43-.71.21-1.63-.49-2.06-.71-.43-1.63-.21-2.06.49l-5.26,8.57v-35.1c0-.83-.67-1.5-1.5-1.5s-1.5.67-1.5,1.5v35.1l-5.26-8.57c-.43-.71-1.36-.93-2.06-.49-.71.43-.93,1.36-.49,2.06l8.04,13.1Z"/><path class="cls-2" d="m115.34,124.73c.71.43,1.63.21,2.06-.49l5.26-8.57v35.1c0,.83.67,1.5,1.5,1.5s1.5-.67,1.5-1.5v-35.1l5.26,8.57c.28.46.78.72,1.28.72.27,0,.54-.07.78-.22.71-.43.93-1.36.49-2.06l-8.04-13.1c-.27-.44-.76-.72-1.28-.72s-1.01.27-1.28.72l-8.04,13.1c-.43.71-.21,1.63.49,2.06Z"/><path class="cls-2" d="m145.73,151.54c.27.44.76.72,1.28.72s1.01-.27,1.28-.72l8.04-13.1c.43-.71.21-1.63-.49-2.06-.71-.43-1.63-.21-2.06.49l-5.26,8.57v-35.1c0-.83-.67-1.5-1.5-1.5s-1.5.67-1.5,1.5v35.1l-5.26-8.57c-.43-.71-1.36-.93-2.06-.49-.71.43-.93,1.36-.49,2.06l8.04,13.1Z"/><path class="cls-2" d="m161.2,124.73c.24.15.52.22.78.22.5,0,1-.25,1.28-.72l5.26-8.57v35.1c0,.83.67,1.5,1.5,1.5s1.5-.67,1.5-1.5v-35.1l5.26,8.57c.43.71,1.36.93,2.06.49.71-.43.93-1.36.49-2.06l-8.04-13.1c-.27-.44-.76-.72-1.28-.72s-1.01.27-1.28.72l-8.04,13.1c-.43.71-.21,1.63.49,2.06Z"/><path class="cls-2" d="m191.59,151.54c.27.44.76.72,1.28.72s1.01-.27,1.28-.72l8.04-13.1c.43-.71.21-1.63-.49-2.06s-1.63-.21-2.06.49l-5.26,8.57v-35.1c0-.83-.67-1.5-1.5-1.5s-1.5.67-1.5,1.5v35.1l-5.26-8.57c-.43-.71-1.36-.93-2.06-.49-.71.43-.93,1.36-.49,2.06l8.04,13.1Z"/><path class="cls-2" d="m207.06,124.73c.24.15.52.22.78.22.5,0,1-.25,1.28-.72l5.26-8.57v35.1c0,.83.67,1.5,1.5,1.5s1.5-.67,1.5-1.5v-35.1l5.26,8.57c.43.71,1.36.93,2.06.49.71-.43.93-1.36.49-2.06l-8.04-13.1c-.27-.44-.76-.72-1.28-.72s-1.01.27-1.28.72l-8.04,13.1c-.43.71-.21,1.63.49,2.06Z"/><path class="cls-2" d="m237.45,151.54c.27.44.76.72,1.28.72s1.01-.27,1.28-.72l8.04-13.1c.43-.71.21-1.63-.49-2.06-.71-.43-1.63-.21-2.06.49l-5.26,8.57v-35.1c0-.83-.67-1.5-1.5-1.5s-1.5.67-1.5,1.5v35.1l-5.26-8.57c-.43-.71-1.36-.93-2.06-.49-.71.43-.93,1.36-.49,2.06l8.04,13.1Z"/><path class="cls-2" d="m252.92,124.73c.71.43,1.63.21,2.06-.49l5.26-8.57v35.1c0,.83.67,1.5,1.5,1.5s1.5-.67,1.5-1.5v-35.1l5.26,8.57c.28.46.78.72,1.28.72.27,0,.54-.07.78-.22.71-.43.93-1.36.49-2.06l-8.04-13.1c-.27-.44-.76-.72-1.28-.72s-1.01.27-1.28.72l-8.04,13.1c-.43.71-.21,1.63.49,2.06Z"/><path class="cls-2" d="m283.31,151.54c.27.44.76.72,1.28.72s1.01-.27,1.28-.72l8.04-13.1c.43-.71.21-1.63-.49-2.06s-1.63-.21-2.06.49l-5.26,8.57v-35.1c0-.83-.67-1.5-1.5-1.5s-1.5.67-1.5,1.5v35.1l-5.26-8.57c-.43-.71-1.36-.93-2.06-.49-.71.43-.93,1.36-.49,2.06l8.04,13.1Z"/><path class="cls-2" d="m298.78,124.73c.71.43,1.63.21,2.06-.49l5.26-8.57v35.1c0,.83.67,1.5,1.5,1.5s1.5-.67,1.5-1.5v-35.1l5.26,8.57c.28.46.78.72,1.28.72.27,0,.54-.07.78-.22.71-.43.93-1.36.49-2.06l-8.04-13.1c-.27-.44-.76-.72-1.28-.72s-1.01.27-1.28.72l-8.04,13.1c-.43.71-.21,1.63.49,2.06Z"/><path class="cls-2" d="m329.17,151.54c.27.44.76.72,1.28.72s1.01-.27,1.28-.72l8.04-13.1c.43-.71.21-1.63-.49-2.06-.71-.43-1.63-.21-2.06.49l-5.26,8.57v-35.1c0-.83-.67-1.5-1.5-1.5s-1.5.67-1.5,1.5v35.1l-5.26-8.57c-.43-.71-1.36-.93-2.06-.49s-.93,1.36-.49,2.06l8.04,13.1Z"/><path class="cls-2" d="m344.65,124.73c.71.43,1.63.21,2.06-.49l5.26-8.57v35.1c0,.83.67,1.5,1.5,1.5s1.5-.67,1.5-1.5v-35.1l5.26,8.57c.28.46.78.72,1.28.72.27,0,.54-.07.78-.22.71-.43.93-1.36.49-2.06l-8.04-13.1c-.27-.44-.76-.72-1.28-.72s-1.01.27-1.28.72l-8.04,13.1c-.43.71-.21,1.63.49,2.06Z"/><path class="cls-2" d="m375.03,151.54c.27.44.76.72,1.28.72s1.01-.27,1.28-.72l8.04-13.1c.43-.71.21-1.63-.49-2.06-.71-.43-1.63-.21-2.06.49l-5.26,8.57v-35.1c0-.83-.67-1.5-1.5-1.5s-1.5.67-1.5,1.5v35.1l-5.26-8.57c-.43-.71-1.36-.93-2.06-.49s-.93,1.36-.49,2.06l8.04,13.1Z"/><path class="cls-2" d="m56.77,159.88c-.27-.44-.76-.72-1.28-.72s-1.01.27-1.28.72l-8.04,13.1c-.43.71-.21,1.63.49,2.06.71.43,1.63.21,2.06-.49l5.26-8.57v35.1c0,.83.67,1.5,1.5,1.5s1.5-.67,1.5-1.5v-35.1l5.26,8.57c.28.46.78.72,1.28.72.27,0,.54-.07.78-.22.71-.43.93-1.36.49-2.06l-8.04-13.1Z"/><path class="cls-2" d="m87.16,186.69c-.71-.43-1.63-.21-2.06.49l-5.26,8.57v-35.1c0-.83-.67-1.5-1.5-1.5s-1.5.67-1.5,1.5v35.1l-5.26-8.57c-.43-.71-1.36-.93-2.06-.49-.71.43-.93,1.36-.49,2.06l8.04,13.1c.27.44.76.72,1.28.72s1.01-.27,1.28-.72l8.04-13.1c.43-.71.21-1.63-.49-2.06Z"/><path class="cls-2" d="m102.63,159.88c-.27-.44-.76-.72-1.28-.72s-1.01.27-1.28.72l-8.04,13.1c-.43.71-.21,1.63.49,2.06.24.15.52.22.78.22.5,0,1-.25,1.28-.72l5.26-8.57v35.1c0,.83.67,1.5,1.5,1.5s1.5-.67,1.5-1.5v-35.1l5.26,8.57c.43.71,1.36.93,2.06.49.71-.43.93-1.36.49-2.06l-8.04-13.1Z"/><path class="cls-2" d="m133.02,186.69c-.71-.43-1.63-.21-2.06.49l-5.26,8.57v-35.1c0-.83-.67-1.5-1.5-1.5s-1.5.67-1.5,1.5v35.1l-5.26-8.57c-.43-.71-1.36-.93-2.06-.49-.71.43-.93,1.36-.49,2.06l8.04,13.1c.27.44.76.72,1.28.72s1.01-.27,1.28-.72l8.04-13.1c.43-.71.21-1.63-.49-2.06Z"/><path class="cls-2" d="m148.49,159.88c-.27-.44-.76-.72-1.28-.72s-1.01.27-1.28.72l-8.04,13.1c-.43.71-.21,1.63.49,2.06.24.15.52.22.78.22.5,0,1-.25,1.28-.72l5.26-8.57v35.1c0,.83.67,1.5,1.5,1.5s1.5-.67,1.5-1.5v-35.1l5.26,8.57c.43.71,1.36.93,2.06.49.71-.43.93-1.36.49-2.06l-8.04-13.1Z"/><path class="cls-2" d="m178.88,186.69c-.71-.43-1.63-.21-2.06.49l-5.26,8.57v-35.1c0-.83-.67-1.5-1.5-1.5s-1.5.67-1.5,1.5v35.1l-5.26-8.57c-.43-.71-1.36-.93-2.06-.49-.71.43-.93,1.36-.49,2.06l8.04,13.1c.27.44.76.72,1.28.72s1.01-.27,1.28-.72l8.04-13.1c.43-.71.21-1.63-.49-2.06Z"/><path class="cls-2" d="m194.35,159.88c-.27-.44-.76-.72-1.28-.72s-1.01.27-1.28.72l-8.04,13.1c-.43.71-.21,1.63.49,2.06.71.43,1.63.21,2.06-.49l5.26-8.57v35.1c0,.83.67,1.5,1.5,1.5s1.5-.67,1.5-1.5v-35.1l5.26,8.57c.28.46.78.72,1.28.72.27,0,.54-.07.78-.22.71-.43.93-1.36.49-2.06l-8.04-13.1Z"/><path class="cls-2" d="m224.74,186.69c-.71-.43-1.63-.21-2.06.49l-5.26,8.57v-35.1c0-.83-.67-1.5-1.5-1.5s-1.5.67-1.5,1.5v35.1l-5.26-8.57c-.43-.71-1.36-.93-2.06-.49-.71.43-.93,1.36-.49,2.06l8.04,13.1c.27.44.76.72,1.28.72s1.01-.27,1.28-.72l8.04-13.1c.43-.71.21-1.63-.49-2.06Z"/><path class="cls-2" d="m240.21,159.88c-.27-.44-.76-.72-1.28-.72s-1.01.27-1.28.72l-8.04,13.1c-.43.71-.21,1.63.49,2.06.71.43,1.63.21,2.06-.49l5.26-8.57v35.1c0,.83.67,1.5,1.5,1.5s1.5-.67,1.5-1.5v-35.1l5.26,8.57c.28.46.78.72,1.28.72.27,0,.54-.07.78-.22.71-.43.93-1.36.49-2.06l-8.04-13.1Z"/><path class="cls-2" d="m270.6,186.69c-.71-.43-1.63-.21-2.06.49l-5.26,8.57v-35.1c0-.83-.67-1.5-1.5-1.5s-1.5.67-1.5,1.5v35.1l-5.26-8.57c-.43-.71-1.36-.93-2.06-.49-.71.43-.93,1.36-.49,2.06l8.04,13.1c.27.44.76.72,1.28.72s1.01-.27,1.28-.72l8.04-13.1c.43-.71.21-1.63-.49-2.06Z"/><path class="cls-2" d="m286.08,159.88c-.27-.44-.76-.72-1.28-.72s-1.01.27-1.28.72l-8.04,13.1c-.43.71-.21,1.63.49,2.06.24.15.52.22.78.22.5,0,1-.25,1.28-.72l5.26-8.57v35.1c0,.83.67,1.5,1.5,1.5s1.5-.67,1.5-1.5v-35.1l5.26,8.57c.43.71,1.36.93,2.06.49s.93-1.36.49-2.06l-8.04-13.1Z"/><path class="cls-2" d="m316.46,186.69c-.71-.43-1.63-.21-2.06.49l-5.26,8.57v-35.1c0-.83-.67-1.5-1.5-1.5s-1.5.67-1.5,1.5v35.1l-5.26-8.57c-.43-.71-1.36-.93-2.06-.49-.71.43-.93,1.36-.49,2.06l8.04,13.1c.27.44.76.72,1.28.72s1.01-.27,1.28-.72l8.04-13.1c.43-.71.21-1.63-.49-2.06Z"/><path class="cls-2" d="m331.94,159.88c-.27-.44-.76-.72-1.28-.72s-1.01.27-1.28.72l-8.04,13.1c-.43.71-.21,1.63.49,2.06.24.15.52.22.78.22.5,0,1-.25,1.28-.72l5.26-8.57v35.1c0,.83.67,1.5,1.5,1.5s1.5-.67,1.5-1.5v-35.1l5.26,8.57c.43.71,1.36.93,2.06.49s.93-1.36.49-2.06l-8.04-13.1Z"/><path class="cls-2" d="m362.32,186.69c-.71-.43-1.63-.21-2.06.49l-5.26,8.57v-35.1c0-.83-.67-1.5-1.5-1.5s-1.5.67-1.5,1.5v35.1l-5.26-8.57c-.43-.71-1.36-.93-2.06-.49-.71.43-.93,1.36-.49,2.06l8.04,13.1c.27.44.76.72,1.28.72s1.01-.27,1.28-.72l8.04-13.1c.43-.71.21-1.63-.49-2.06Z"/><path class="cls-2" d="m377.8,159.88c-.27-.44-.76-.72-1.28-.72s-1.01.27-1.28.72l-8.04,13.1c-.43.71-.21,1.63.49,2.06.71.43,1.63.21,2.06-.49l5.26-8.57v35.1c0,.83.67,1.5,1.5,1.5s1.5-.67,1.5-1.5v-35.1l5.26,8.57c.28.46.78.72,1.28.72.27,0,.54-.07.78-.22.71-.43.93-1.36.49-2.06l-8.04-13.1Z"/><path class="cls-2" d="m388.86,124.73c.71.43,1.63.21,2.06-.49l5.26-8.57v35.1c0,.83.67,1.5,1.5,1.5s1.5-.67,1.5-1.5v-35.1l5.26,8.57c.28.46.78.72,1.28.72.27,0,.54-.07.78-.22.71-.43.93-1.36.49-2.06l-8.04-13.1c-.27-.44-.76-.72-1.28-.72s-1.01.27-1.28.72l-8.04,13.1c-.43.71-.21,1.63.49,2.06Z"/><path class="cls-2" d="m406.53,186.69c-.71-.43-1.63-.21-2.06.49l-5.26,8.57v-35.1c0-.83-.67-1.5-1.5-1.5s-1.5.67-1.5,1.5v35.1l-5.26-8.57c-.43-.71-1.36-.93-2.06-.49s-.93,1.36-.49,2.06l8.04,13.1c.27.44.76.72,1.28.72s1.01-.27,1.28-.72l8.04-13.1c.43-.71.21-1.63-.49-2.06Z"/><path class="cls-2" d="m41.26,186.69c-.71-.43-1.63-.21-2.06.49l-5.26,8.57v-35.1c0-.83-.67-1.5-1.5-1.5s-1.5.67-1.5,1.5v35.1l-5.26-8.57c-.43-.71-1.36-.93-2.06-.49-.71.43-.93,1.36-.49,2.06l8.04,13.1c.27.44.76.72,1.28.72s1.01-.27,1.28-.72l8.04-13.1c.43-.71.21-1.63-.49-2.06Z"/><path class="cls-2" d="m33.72,210.19c-.27-.44-.76-.72-1.28-.72s-1.01.27-1.28.72l-8.04,13.1c-.43.71-.21,1.63.49,2.06.24.15.52.22.78.22.5,0,1-.25,1.28-.72l5.26-8.57v35.1c0,.83.67,1.5,1.5,1.5s1.5-.67,1.5-1.5v-35.1l5.26,8.57c.43.71,1.36.93,2.06.49.71-.43.93-1.36.49-2.06l-8.04-13.1Z"/><path class="cls-2" d="m54.01,252.17c.27.44.76.72,1.28.72s1.01-.27,1.28-.72l8.04-13.1c.43-.71.21-1.63-.49-2.06-.71-.43-1.63-.21-2.06.49l-5.26,8.57v-35.1c0-.83-.67-1.5-1.5-1.5s-1.5.67-1.5,1.5v35.1l-5.26-8.57c-.43-.71-1.36-.93-2.06-.49-.71.43-.93,1.36-.49,2.06l8.04,13.1Z"/><path class="cls-2" d="m69.48,225.36c.71.43,1.63.21,2.06-.49l5.26-8.57v35.1c0,.83.67,1.5,1.5,1.5s1.5-.67,1.5-1.5v-35.1l5.26,8.57c.28.46.78.72,1.28.72.27,0,.54-.07.78-.22.71-.43.93-1.36.49-2.06l-8.04-13.1c-.27-.44-.76-.72-1.28-.72s-1.01.27-1.28.72l-8.04,13.1c-.43.71-.21,1.63.49,2.06Z"/><path class="cls-2" d="m99.87,252.17c.27.44.76.72,1.28.72s1.01-.27,1.28-.72l8.04-13.1c.43-.71.21-1.63-.49-2.06s-1.63-.21-2.06.49l-5.26,8.57v-35.1c0-.83-.67-1.5-1.5-1.5s-1.5.67-1.5,1.5v35.1l-5.26-8.57c-.43-.71-1.36-.93-2.06-.49-.71.43-.93,1.36-.49,2.06l8.04,13.1Z"/><path class="cls-2" d="m115.34,225.36c.71.43,1.63.21,2.06-.49l5.26-8.57v35.1c0,.83.67,1.5,1.5,1.5s1.5-.67,1.5-1.5v-35.1l5.26,8.57c.28.46.78.72,1.28.72.27,0,.54-.07.78-.22.71-.43.93-1.36.49-2.06l-8.04-13.1c-.27-.44-.76-.72-1.28-.72s-1.01.27-1.28.72l-8.04,13.1c-.43.71-.21,1.63.49,2.06Z"/><path class="cls-2" d="m145.73,252.17c.27.44.76.72,1.28.72s1.01-.27,1.28-.72l8.04-13.1c.43-.71.21-1.63-.49-2.06-.71-.43-1.63-.21-2.06.49l-5.26,8.57v-35.1c0-.83-.67-1.5-1.5-1.5s-1.5.67-1.5,1.5v35.1l-5.26-8.57c-.43-.71-1.36-.93-2.06-.49-.71.43-.93,1.36-.49,2.06l8.04,13.1Z"/><path class="cls-2" d="m161.2,225.36c.24.15.52.22.78.22.5,0,1-.25,1.28-.72l5.26-8.57v35.1c0,.83.67,1.5,1.5,1.5s1.5-.67,1.5-1.5v-35.1l5.26,8.57c.43.71,1.36.93,2.06.49.71-.43.93-1.36.49-2.06l-8.04-13.1c-.27-.44-.76-.72-1.28-.72s-1.01.27-1.28.72l-8.04,13.1c-.43.71-.21,1.63.49,2.06Z"/><path class="cls-2" d="m191.59,252.17c.27.44.76.72,1.28.72s1.01-.27,1.28-.72l8.04-13.1c.43-.71.21-1.63-.49-2.06-.71-.43-1.63-.21-2.06.49l-5.26,8.57v-35.1c0-.83-.67-1.5-1.5-1.5s-1.5.67-1.5,1.5v35.1l-5.26-8.57c-.43-.71-1.36-.93-2.06-.49-.71.43-.93,1.36-.49,2.06l8.04,13.1Z"/><path class="cls-2" d="m207.06,225.36c.24.15.52.22.78.22.5,0,1-.25,1.28-.72l5.26-8.57v35.1c0,.83.67,1.5,1.5,1.5s1.5-.67,1.5-1.5v-35.1l5.26,8.57c.43.71,1.36.93,2.06.49.71-.43.93-1.36.49-2.06l-8.04-13.1c-.27-.44-.76-.72-1.28-.72s-1.01.27-1.28.72l-8.04,13.1c-.43.71-.21,1.63.49,2.06Z"/><path class="cls-2" d="m237.45,252.17c.27.44.76.72,1.28.72s1.01-.27,1.28-.72l8.04-13.1c.43-.71.21-1.63-.49-2.06-.71-.43-1.63-.21-2.06.49l-5.26,8.57v-35.1c0-.83-.67-1.5-1.5-1.5s-1.5.67-1.5,1.5v35.1l-5.26-8.57c-.43-.71-1.36-.93-2.06-.49-.71.43-.93,1.36-.49,2.06l8.04,13.1Z"/><path class="cls-2" d="m252.92,225.36c.71.43,1.63.21,2.06-.49l5.26-8.57v35.1c0,.83.67,1.5,1.5,1.5s1.5-.67,1.5-1.5v-35.1l5.26,8.57c.28.46.78.72,1.28.72.27,0,.54-.07.78-.22.71-.43.93-1.36.49-2.06l-8.04-13.1c-.27-.44-.76-.72-1.28-.72s-1.01.27-1.28.72l-8.04,13.1c-.43.71-.21,1.63.49,2.06Z"/><path class="cls-2" d="m283.31,252.17c.27.44.76.72,1.28.72s1.01-.27,1.28-.72l8.04-13.1c.43-.71.21-1.63-.49-2.06-.71-.43-1.63-.21-2.06.49l-5.26,8.57v-35.1c0-.83-.67-1.5-1.5-1.5s-1.5.67-1.5,1.5v35.1l-5.26-8.57c-.43-.71-1.36-.93-2.06-.49-.71.43-.93,1.36-.49,2.06l8.04,13.1Z"/><path class="cls-2" d="m298.78,225.36c.71.43,1.63.21,2.06-.49l5.26-8.57v35.1c0,.83.67,1.5,1.5,1.5s1.5-.67,1.5-1.5v-35.1l5.26,8.57c.28.46.78.72,1.28.72.27,0,.54-.07.78-.22.71-.43.93-1.36.49-2.06l-8.04-13.1c-.27-.44-.76-.72-1.28-.72s-1.01.27-1.28.72l-8.04,13.1c-.43.71-.21,1.63.49,2.06Z"/><path class="cls-2" d="m329.17,252.17c.27.44.76.72,1.28.72s1.01-.27,1.28-.72l8.04-13.1c.43-.71.21-1.63-.49-2.06-.71-.43-1.63-.21-2.06.49l-5.26,8.57v-35.1c0-.83-.67-1.5-1.5-1.5s-1.5.67-1.5,1.5v35.1l-5.26-8.57c-.43-.71-1.36-.93-2.06-.49-.71.43-.93,1.36-.49,2.06l8.04,13.1Z"/><path class="cls-2" d="m344.65,225.36c.71.43,1.63.21,2.06-.49l5.26-8.57v35.1c0,.83.67,1.5,1.5,1.5s1.5-.67,1.5-1.5v-35.1l5.26,8.57c.28.46.78.72,1.28.72.27,0,.54-.07.78-.22.71-.43.93-1.36.49-2.06l-8.04-13.1c-.27-.44-.76-.72-1.28-.72s-1.01.27-1.28.72l-8.04,13.1c-.43.71-.21,1.63.49,2.06Z"/><path class="cls-2" d="m375.03,252.17c.27.44.76.72,1.28.72s1.01-.27,1.28-.72l8.04-13.1c.43-.71.21-1.63-.49-2.06-.71-.43-1.63-.21-2.06.49l-5.26,8.57v-35.1c0-.83-.67-1.5-1.5-1.5s-1.5.67-1.5,1.5v35.1l-5.26-8.57c-.43-.71-1.36-.93-2.06-.49-.71.43-.93,1.36-.49,2.06l8.04,13.1Z"/><path class="cls-2" d="m64.31,275.68c-.24.14-.51.22-.78.22-.5,0-1-.26-1.28-.72l-5.26-8.57v21.4c-1.01-.39-2.01-.8-3-1.23v-20.17l-5.26,8.57c-.43.71-1.36.93-2.06.5-.71-.43-.93-1.36-.5-2.07l6.9-11.24,1.14-1.86c.26-.42.68-.68,1.16-.71.04,0,.08,0,.12,0,.52,0,1,.27,1.28.72l.16.26,3.68,5.99,4.2,6.84c.43.71.21,1.63-.49,2.07Z"/><path class="cls-2" d="m72.44,289.21l2.45,3.99c-1.36-.26-2.71-.55-4.06-.88l-1.8-2.94c-.2-.33-.26-.71-.19-1.07.07-.4.31-.77.68-1,.71-.43,1.63-.21,2.06.49l.86,1.4Z"/><path class="cls-2" d="m79.83,261.29v32.76c-1-.14-2-.31-3-.48v-32.28c0-.83.67-1.51,1.5-1.51s1.5.67,1.5,1.51Z"/><path class="cls-2" d="m87.65,289.38l-1.23,1.99-1.99,3.24c-1.1-.11-2.2-.24-3.28-.39l1.96-3.18,1.98-3.23c.43-.71,1.36-.93,2.07-.49s.93,1.36.49,2.07Z"/><path class="cls-2" d="m110.79,274.92c-.11.31-.32.58-.62.76-.71.43-1.63.2-2.06-.5l-5.26-8.57v28.54h-3v-28.54l-3.85,6.27-1.41,2.3c-.28.47-.77.72-1.28.72-.26,0-.54-.08-.78-.22-.7-.43-.92-1.36-.49-2.07l.6-.99,7.44-12.11c.27-.45.76-.72,1.28-.72s1,.27,1.28.72l8.03,13.1c.11.18.17.37.2.55h0c.05.26.02.52-.07.76Z"/><path class="cls-2" d="m119.85,291.74l2.08,3.4h-3.51l-2.08-3.4-1.45-2.36c-.43-.71-.21-1.63.49-2.07.71-.43,1.63-.21,2.06.49l2.41,3.93Z"/><path class="cls-2" d="m125.69,261.29v33.85h-3v-33.85c0-.83.67-1.51,1.5-1.51s1.5.67,1.5,1.51Z"/><path class="cls-2" d="m133.52,289.38l-1.45,2.36-2.09,3.4h-3.51l2.08-3.4,2.41-3.93c.43-.71,1.36-.93,2.07-.49s.93,1.36.49,2.07Z"/><path class="cls-2" d="m156.03,275.68c-.71.43-1.63.2-2.06-.5l-1.34-2.18-3.92-6.39v28.54h-3v-28.54l-5.26,8.57c-.28.47-.77.72-1.29.72-.26,0-.54-.08-.78-.22-.71-.43-.93-1.36-.49-2.07l8.04-13.1c.27-.45.76-.72,1.28-.72s1,.27,1.28.72l7.66,12.48.37.61c.43.71.21,1.63-.49,2.07Z"/><path class="cls-2" d="m165.71,291.74l2.08,3.4h-3.51l-2.08-3.4-1.45-2.36c-.43-.71-.21-1.63.49-2.07.71-.43,1.63-.21,2.06.49l2.41,3.93Z"/><path class="cls-2" d="m171.56,261.29v33.85h-3v-33.85c0-.83.67-1.51,1.5-1.51s1.5.67,1.5,1.51Z"/><path class="cls-2" d="m179.38,289.38l-1.45,2.36-2.09,3.4h-3.51l2.08-3.4,2.41-3.93c.43-.71,1.36-.93,2.07-.49.71.43.93,1.36.49,2.07Z"/><path class="cls-2" d="m201.89,275.68c-.24.14-.51.22-.78.22-.5,0-1-.26-1.28-.72l-1.34-2.18-3.92-6.39v28.54h-3v-28.54l-3.92,6.39-1.34,2.18c-.43.71-1.36.93-2.07.5-.71-.43-.93-1.36-.49-2.07l.37-.61,7.67-12.48c.27-.45.76-.72,1.28-.72s1,.27,1.28.72l7.66,12.48.37.61c.43.71.21,1.63-.49,2.07Z"/><path class="cls-2" d="m211.57,291.74l2.08,3.4h-3.51l-2.08-3.4-1.45-2.36c-.43-.71-.21-1.63.49-2.07s1.63-.21,2.06.49l2.41,3.93Z"/><path class="cls-2" d="m217.42,261.29v33.85h-3v-33.85c0-.83.67-1.51,1.5-1.51s1.5.67,1.5,1.51Z"/><path class="cls-2" d="m225.24,289.38l-1.45,2.36-2.09,3.4h-3.51l2.08-3.4,2.41-3.93c.43-.71,1.36-.93,2.07-.49.71.43.93,1.36.49,2.07Z"/><path class="cls-2" d="m247.75,275.68c-.25.14-.51.22-.78.22-.5,0-1-.26-1.28-.72l-1.34-2.18-3.92-6.39v28.54h-3v-28.54l-3.92,6.39-1.34,2.18c-.43.71-1.36.93-2.07.5-.71-.43-.93-1.36-.49-2.07l.37-.61,7.67-12.48c.27-.45.75-.72,1.28-.72s1,.27,1.28.72l7.66,12.48.37.61c.43.71.21,1.63-.49,2.07Z"/><path class="cls-2" d="m257.43,291.74l2.08,3.4h-3.51l-2.08-3.4-1.45-2.36c-.43-.71-.21-1.63.49-2.07s1.63-.21,2.06.49l2.41,3.93Z"/><path class="cls-2" d="m263.28,261.29v33.85h-3v-33.85c0-.83.67-1.51,1.5-1.51s1.5.67,1.5,1.51Z"/><path class="cls-2" d="m271.1,289.38l-1.45,2.36-2.09,3.4h-3.51l2.08-3.4,2.41-3.93c.43-.71,1.36-.93,2.07-.49.71.43.92,1.36.49,2.07Z"/><path class="cls-2" d="m293.62,275.68c-.71.43-1.63.2-2.06-.5l-1.34-2.18-3.92-6.39v28.54h-3v-28.54l-3.92,6.39-1.34,2.18c-.29.47-.78.72-1.28.72-.26,0-.54-.08-.78-.22-.71-.43-.93-1.36-.49-2.07l.37-.61,7.67-12.48c.27-.45.75-.72,1.28-.72s1,.27,1.28.72l7.66,12.48.37.61c.43.71.21,1.63-.49,2.07Z"/><path class="cls-2" d="m303.29,291.74l2.08,3.4h-3.51l-2.08-3.4-1.45-2.36c-.43-.71-.21-1.63.49-2.07.71-.43,1.63-.21,2.06.49l2.41,3.93Z"/><path class="cls-2" d="m309.14,261.29v33.85h-3v-33.85c0-.83.67-1.51,1.5-1.51s1.5.67,1.5,1.51Z"/><path class="cls-2" d="m316.96,289.38l-1.45,2.36-2.09,3.4h-3.51l2.08-3.4,2.41-3.93c.43-.71,1.35-.93,2.06-.49s.93,1.36.5,2.07Z"/><path class="cls-2" d="m339.48,275.68c-.52.31-1.15.27-1.63-.05-.17-.11-.32-.26-.43-.45l-1.34-2.18-3.92-6.39v28.54h-3v-28.54l-3.92,6.39-1.34,2.18c-.29.47-.78.72-1.29.72-.26,0-.54-.08-.78-.22-.71-.43-.93-1.36-.49-2.07l.37-.61,7.66-12.48c.28-.45.76-.72,1.29-.72s1,.27,1.28.72l8.03,13.1c.43.71.21,1.63-.49,2.07Z"/><path class="cls-2" d="m349,291.5l2,3.25c-1.12.11-2.25.19-3.38.24l-2.03-3.32-1.4-2.28c-.43-.71-.2-1.63.5-2.07.71-.43,1.63-.21,2.06.49l2.26,3.68Z"/><path class="cls-2" d="m355,261.29v33.04c-1,.13-1.99.24-3,.33v-33.37c0-.83.67-1.51,1.5-1.51s1.5.67,1.5,1.51Z"/><path class="cls-2" d="m362.82,289.38l-.12.19-2.42,3.95c-1.29.24-2.6.44-3.91.62l2.33-3.8,1.55-2.53c.43-.71,1.35-.93,2.06-.49s.93,1.36.5,2.07Z"/><path class="cls-2" d="m385.34,275.68c-.25.14-.51.22-.78.22-.5,0-1-.26-1.28-.72l-5.26-8.57v22.03c-1,.38-2,.74-3,1.08v-23.11l-5.25,8.57c-.43.71-1.36.93-2.07.5-.71-.43-.93-1.36-.49-2.07l8.03-13.1c.27-.45.76-.72,1.29-.72s1,.27,1.28.72l8.03,13.1c.43.71.21,1.63-.49,2.07Z"/><path class="cls-2" d="m388.86,225.36c.71.43,1.63.21,2.06-.49l5.26-8.57v35.1c0,.83.67,1.5,1.5,1.5s1.5-.67,1.5-1.5v-35.1l5.26,8.57c.28.46.78.72,1.28.72.27,0,.54-.07.78-.22.71-.43.93-1.36.49-2.06l-8.04-13.1c-.27-.44-.76-.72-1.28-.72s-1.01.27-1.28.72l-8.04,13.1c-.43.71-.21,1.63.49,2.06Z"/><text class="cls-1" transform="translate(130.57 142.04)"><tspan x="0" y="0">Eu</tspan><tspan class="cls-3" x="47.1" y="0">r</tspan><tspan x="59.8" y="0">opean </tspan><tspan x="-38.17" y="47.94">Open Science </tspan><tspan x="36.83" y="95.87">Cloud</tspan></text><path class="cls-4" d="m444.2,192.93v5.91l-.2.2c-.96,16.5-5.91,32.36-14.27,46.34-4.29,7.16-9.47,13.82-15.48,19.83-10.46,10.46-22.79,18.37-36.24,23.42-1,.38-2,.74-3,1.08-4.79,1.63-9.71,2.9-14.73,3.8-1.29.24-2.6.44-3.91.62-.46.07-.92.14-1.38.19-1,.13-1.99.24-3,.33-.33.03-.66.07-1,.09-1.12.11-2.25.19-3.38.24-1.86.11-3.74.16-5.63.16H95.08c-3.57,0-7.12-.18-10.64-.53-1.1-.11-2.2-.24-3.28-.39-.44-.05-.88-.11-1.32-.18-1-.14-2-.31-3-.48-.66-.11-1.3-.23-1.95-.37-1.36-.26-2.71-.55-4.06-.88-4.73-1.11-9.35-2.56-13.84-4.32-1.01-.39-2.01-.8-3-1.23-11.19-4.8-21.52-11.61-30.56-20.24-1-.95-1.98-1.93-2.95-2.93-.65-.67-.63-1.75.04-2.41.67-.66,1.75-.64,2.41.04.16.17.33.34.5.51,8.92,9.1,19.28,16.26,30.56,21.31.99.44,1.99.87,3,1.27,3.86,1.58,7.8,2.92,11.85,3.98,1.19.33,2.39.63,3.6.9,1.46.33,2.92.63,4.4.89,1,.19,1.99.35,3,.5,1.09.16,2.18.31,3.28.43,1.1.14,2.2.25,3.32.33,2.86.25,5.74.37,8.65.37h246.92c1.2,0,2.4-.03,3.59-.08,1.14-.03,2.28-.09,3.41-.17,1-.07,2.01-.15,3-.26,1-.09,2-.21,3-.35,1.24-.15,2.48-.34,3.71-.55,1.34-.22,2.67-.48,3.99-.77,4.19-.88,8.3-2.03,12.31-3.46,1-.35,2.01-.72,3-1.11,12.54-4.89,24.03-12.38,33.83-22.19,3.13-3.13,6.03-6.44,8.68-9.92h0c3.5-4.57,6.57-9.42,9.2-14.48.09-.17.18-.35.26-.52,6.25-12.22,9.92-25.71,10.65-39.66l.03-.65.12-.13v-4.52c0-15.91-3.84-31.47-11.06-45.41-.81-1.59-1.68-3.16-2.59-4.7-.56-.96-1.15-1.92-1.75-2.87-1.07-1.69-2.2-3.34-3.37-4.96-.96-1.34-1.97-2.65-3-3.93-.62-.78-1.26-1.55-1.91-2.31-4.54-5.3-9.63-10.1-15.16-14.31l-.02-.02c-1.93-1.46-3.9-2.85-5.94-4.19-10.32-6.73-21.87-11.55-33.99-14.04l-.79-.16-.37-.71c-.25-.47-.49-.94-.75-1.4-.55-1-1.12-1.98-1.71-2.94-1.06-1.74-2.19-3.41-3.38-5.04-.96-1.31-1.96-2.59-3-3.82-4.47-5.34-9.64-9.97-15.34-13.8-2.84-1.91-5.81-3.62-8.89-5.11-9.83-4.77-20.78-7.36-32.15-7.36-8.92,0-17.58,1.56-25.77,4.63l-1.4.52-.71-1.31c-6.99-12.99-16.41-24.13-27.53-33-.99-.78-1.98-1.55-3-2.3-5.64-4.18-11.68-7.8-18.02-10.78h0c-1.72-.81-3.46-1.57-5.22-2.3-12.6-5.13-26.28-7.9-40.38-7.9-16.11,0-31.79,3.59-46.01,10.39-3.54,1.68-6.98,3.57-10.32,5.65-5.14,3.18-10.03,6.83-14.62,10.91-.58.52-1.15,1.04-1.72,1.57-.43.4-.86.81-1.29,1.22-1.7,1.63-3.34,3.3-4.9,5.03-.71.77-1.4,1.55-2.08,2.34-5.22,6.05-9.72,12.65-13.44,19.66-.83,1.57-1.63,3.17-2.38,4.77-3.41,7.27-6.01,14.92-7.7,22.81-.1.45-.2.9-.27,1.35h0c-.51,2.5-.93,5-1.25,7.54l-.14,1.11-1.07.31c-10.96,3.17-21.31,8.27-30.54,14.99-1.68,1.23-3.31,2.49-4.91,3.82-.52.43-1.03.85-1.53,1.29h0c-1.83,1.58-3.6,3.23-5.31,4.94-.22.22-.44.44-.66.67-.13.12-.25.24-.36.37-8.4,8.64-15.05,18.57-19.81,29.56-.37.86-1.38,1.26-2.24.89-.87-.37-1.26-1.38-.89-2.24,5.12-11.82,12.37-22.47,21.55-31.65.58-.58,1.17-1.15,1.75-1.71,1.41-1.35,2.86-2.65,4.35-3.91h0c2.03-1.73,4.12-3.37,6.27-4.93,9.19-6.65,19.45-11.75,30.31-15.03,3.46-25.09,15.59-48.37,34.24-65.68.34-.31.68-.63,1.03-.94.99-.9,1.98-1.77,3-2.62,5.73-4.83,11.88-9.02,18.36-12.54,1.57-.87,3.17-1.68,4.79-2.46,14.76-7.11,31.05-10.88,47.79-10.88,23.23,0,45.35,7.27,63.63,20.19,1.01.71,2.02,1.44,3,2.19,12.02,9.11,22.24,20.75,29.82,34.41,8.16-2.88,16.76-4.34,25.58-4.34,12.03,0,23.62,2.77,33.99,7.86,1.06.53,2.12,1.07,3.16,1.65,7.14,3.92,13.63,8.98,19.23,15,1.03,1.11,2.03,2.26,3,3.43,1.92,2.32,3.71,4.78,5.37,7.35.6.94,1.18,1.9,1.75,2.87.47.8.92,1.6,1.35,2.42,21.43,4.6,41.09,16.19,55.55,32.75.23.26.45.51.67.77.8.93,1.57,1.87,2.33,2.83,1.9,2.38,3.68,4.84,5.34,7.37.61.93,1.21,1.87,1.79,2.82.2.31.39.64.58.96,9.4,15.74,14.47,33.86,14.47,52.41Z"/><path class="cls-4" d="m100.6,276.4c-23.81,0-46.02-9.39-62.53-26.44-16.2-16.72-24.71-38.67-23.98-61.8.68-21.77,9.56-42.27,24.99-57.7,11.28-11.28,25.42-19.16,40.87-22.79,1.53-.36,2.63-1.65,2.76-3.2,1.85-23.29,12.33-44.91,29.51-60.86,17.28-16.04,39.79-24.87,63.38-24.87,21.11,0,41.78,7.25,58.22,20.42.73.59.85,1.66.26,2.39-.59.73-1.66.85-2.39.26-16.07-12.87-35.47-19.68-56.1-19.68-46.51,0-85.82,36.28-89.5,82.6-.24,3.04-2.4,5.55-5.37,6.25-14.84,3.48-28.41,11.05-39.24,21.88-14.82,14.82-23.34,34.49-23.99,55.4-.71,22.2,7.47,43.27,23.02,59.32,15.87,16.38,37.21,25.4,60.09,25.4.94,0,1.7.76,1.7,1.7s-.76,1.7-1.7,1.7Z"/><path class="cls-4" d="m126.78,276.4h-14.3c-.94,0-1.7-.76-1.7-1.7s.76-1.7,1.7-1.7h14.3c.94,0,1.7.76,1.7,1.7s-.76,1.7-1.7,1.7Z"/><path class="cls-4" d="m336.42,276.4h-192.6c-.94,0-1.7-.76-1.7-1.7s.76-1.7,1.7-1.7h192.6c.94,0,1.7.76,1.7,1.7s-.76,1.7-1.7,1.7Z"/><path class="cls-4" d="m385.83,260.29c-.52,0-1.04-.24-1.37-.7-.56-.76-.39-1.82.37-2.38,3.4-2.49,6.65-5.27,9.63-8.25,15.5-15.5,24.04-36.11,24.04-58.04l.02-.71c-.33-40.02-29.05-73.71-68.53-80.26-2.24-.37-4.16-1.84-5.13-3.94-9.44-20.52-30.13-33.77-52.72-33.77-8.95,0-17.53,1.98-25.48,5.88-1.68.82-3.57.92-5.33.29-1.78-.64-3.19-1.94-3.98-3.66-.39-.86-.01-1.86.84-2.26.86-.39,1.86-.01,2.26.84.4.88,1.12,1.55,2.03,1.87.89.32,1.84.27,2.69-.14,8.42-4.13,17.5-6.23,26.98-6.23,23.91,0,45.81,14.03,55.81,35.75.5,1.07,1.47,1.83,2.6,2.01,19.74,3.27,37.81,13.49,50.88,28.77,13.22,15.45,20.5,35.17,20.5,55.54l-.02.72c-.18,22.58-9.05,43.77-25.03,59.75-3.11,3.11-6.48,6-10.03,8.59-.3.22-.65.33-1,.33Z"/></g></svg>
