<svg xmlns="http://www.w3.org/2000/svg" width="20" height="21.744" viewBox="0 0 20 21.744"><defs><style>.a{opacity:0.8;}.b{fill:#292929;}</style></defs><g class="a"><path class="b" d="M18.772,15.578a2.718,2.718,0,0,0-.427-.368,3.629,3.629,0,0,0-3.291-.5,3.445,3.445,0,0,0-.962.5c-.07.051-.139.1-.2.161a2.335,2.335,0,0,0-.23.207.3.3,0,0,0-.047.051c-.011.013-.027.028-.036.042a1.611,1.611,0,0,0-.163.19L7.039,12.133a8.04,8.04,0,0,1,8.352-5.007h0a3.681,3.681,0,0,0,.93.133h.046a3.633,3.633,0,0,0,2.008-.605,3.57,3.57,0,0,0,.926-.9A3.63,3.63,0,1,0,13.368,1.57a3.491,3.491,0,0,0-.38.71,3.589,3.589,0,0,0-.26,1.35c0,.065,0,.125,0,.19a4.146,4.146,0,0,0,.051.459,3.721,3.721,0,0,0,.125.486L6.369,8.542a3.546,3.546,0,0,0-.649-.59,3.629,3.629,0,0,0-4.2,0,3.675,3.675,0,0,0-.894.9,3.483,3.483,0,0,0-.38.71,3.35,3.35,0,0,0-.137.41,3.563,3.563,0,0,0-.123.949v.19a3.57,3.57,0,0,0,.038.38.635.635,0,0,0,.013.08,3.641,3.641,0,0,0,.634,1.469h0a3.7,3.7,0,0,0,.934.894,3.606,3.606,0,0,0,2.008.607,3.732,3.732,0,0,0,.55-.038l-.044.036a8.037,8.037,0,0,1,8.6,4.556v-.021a3.606,3.606,0,0,0,2.836,2.61,3.472,3.472,0,0,0,1.26,0,3.629,3.629,0,0,0,2.879-2.58.228.228,0,0,0,0-.038,3.606,3.606,0,0,0-.6-3.111,2.769,2.769,0,0,0-.344-.393M14.129,3.515a2.19,2.19,0,0,1,.254-.928,2.323,2.323,0,0,1,.885-.907A2.24,2.24,0,0,1,16.359,1.4a2.206,2.206,0,0,1,1.1.285,2.234,2.234,0,0,1,.886.909,2.179,2.179,0,0,1,.252,1.038,2.213,2.213,0,0,1-.306,1.116,2.181,2.181,0,0,1-.949.888,2.255,2.255,0,0,1-.983.23h-.04a2.158,2.158,0,0,1-.949-.228,2.278,2.278,0,0,1-.569-.406,1.912,1.912,0,0,1-.156-.171,2.314,2.314,0,0,1-.224-.313.078.078,0,0,1-.015-.027,2.226,2.226,0,0,1-.287-1.091.76.76,0,0,1,0-.114M2.638,12.921a2.24,2.24,0,0,1-.731-.569,2.327,2.327,0,0,1-.22-.307,2.24,2.24,0,0,1-.3-1.118,1.122,1.122,0,0,1,0-.114,2.183,2.183,0,0,1,.258-.941,2.316,2.316,0,0,1,.885-.909,2.278,2.278,0,0,1,1.09-.283,2.232,2.232,0,0,1,1.5.59,2.19,2.19,0,0,1,.437.55.313.313,0,0,1,.038.059,2.1,2.1,0,0,1,.207.562,2.149,2.149,0,0,1,.053.484,2.056,2.056,0,0,1-.057.488,2.105,2.105,0,0,1-.226.6.277.277,0,0,1-.017.028,2.183,2.183,0,0,1-.435.535,2.158,2.158,0,0,1-.514.349,2.265,2.265,0,0,1-.985.23,2.23,2.23,0,0,1-.983-.23m15.8,5.44a2.219,2.219,0,0,1-.642,1.346,2.169,2.169,0,0,1-.22.19,2.261,2.261,0,0,1-.746.38,2.175,2.175,0,0,1-1.26-.019,2.12,2.12,0,0,1-.917-.549A2.185,2.185,0,0,1,14,18.1h0a.9.9,0,0,1,.015-.2c.015-.066,0-.076.015-.116a1.575,1.575,0,0,1,.055-.241,1.993,1.993,0,0,1,.2-.48c.011-.025.027-.049.04-.074a2.291,2.291,0,0,1,.321-.4h0c.034-.034.066-.063.1-.093a1.627,1.627,0,0,1,.142-.114,1.693,1.693,0,0,1,.2-.139,2.253,2.253,0,0,1,2.245,0,2.446,2.446,0,0,1,.45.345,2.371,2.371,0,0,1,.323.412,2.266,2.266,0,0,1,.319,1.388" transform="translate(0.01 0)"/><path class="b" d="M78.35,12.262a.338.338,0,0,0,.319.222h.8v.845a.2.2,0,0,0,.013.085.325.325,0,0,0,.173.216.268.268,0,0,0,.156.046.294.294,0,0,0,.1-.019.34.34,0,0,0,.245-.328v-.845h.9a.345.345,0,0,0,.347-.344.355.355,0,0,0-.156-.287.349.349,0,0,0-.19-.057h-.9v-.848a.325.325,0,0,0-.082-.216.305.305,0,0,0-.044-.042l-.038-.023-.068-.036a.237.237,0,0,0-.112-.023.3.3,0,0,0-.156.038.19.19,0,0,0-.055.036.323.323,0,0,0-.129.268V11.8h-.8a.363.363,0,0,0-.19.057.38.38,0,0,0-.123.167.247.247,0,0,0-.027.12.3.3,0,0,0,.011.084.315.315,0,0,0,.015.038" transform="translate(-63.459 -8.595)"/></g></svg>