<svg xmlns="http://www.w3.org/2000/svg" viewBox="0 0 343.3 123.01"><defs><style>.cls-1{fill:#fff;}</style></defs><g id="Layer_2" data-name="Layer 2"><g id="Layer_1-2" data-name="Layer 1"><g id="Layer_2-2" data-name="Layer 2"><g id="Layer_1-2-2" data-name="Layer 1-2"><path class="cls-1" d="M140.26,87.67c-10.5,0-17.48-8.11-17.48-17.83S129.76,52,140.26,52s17.47,8.12,17.47,17.84S150.75,87.67,140.26,87.67Zm0-31.17c-8,0-12.51,6.25-12.51,13.34s4.49,13.34,12.51,13.34,12.51-6.26,12.51-13.34S148.27,56.5,140.26,56.5Z"/><path class="cls-1" d="M174,87.67a9.31,9.31,0,0,1-8-4.44V94.71a2.43,2.43,0,0,1-4.86,0V66.63a2.26,2.26,0,0,1,2.08-2.42h.25a2.32,2.32,0,0,1,2.37,2.28,1.34,1.34,0,0,1,0,.2v1.76A9.36,9.36,0,0,1,174,64c6,0,10.81,5,10.81,11.84C184.85,83,180,87.67,174,87.67ZM173,68c-4.19,0-7,3.67-7,7.8s2.79,7.81,7,7.81,7-3.15,7-7.81S177.25,68,173.06,68Z"/><path class="cls-1" d="M209.15,75.89c0,.82-.46,1.65-1.86,1.65H191.83c.26,3.57,2.69,6.26,7,6.26a7.92,7.92,0,0,0,6-2.54,2.39,2.39,0,0,1,1.6-.77,2,2,0,0,1,2,2,2.17,2.17,0,0,1-.62,1.4,12.34,12.34,0,0,1-9.2,3.77c-7.71,0-11.79-5.37-11.79-11.84,0-6.77,4.91-11.84,11.58-11.84C204.91,64,209.15,69.27,209.15,75.89Zm-10.75-8a6.42,6.42,0,0,0-6.46,5.74h12.71a6.3,6.3,0,0,0-6.25-5.76Z"/><path class="cls-1" d="M222.8,64a10.62,10.62,0,0,1,10.86,10.38V85a2.43,2.43,0,0,1-4.86,0V74.23a6,6,0,0,0-11.94,0V85A2.43,2.43,0,0,1,212,85V74.8A10.58,10.58,0,0,1,222.37,64Z"/><path class="cls-1" d="M261.68,79.45h-15.3l-3,6.31a2.78,2.78,0,0,1-2.64,1.71,2.93,2.93,0,0,1-3-2.86v-.14a2.81,2.81,0,0,1,.31-1.24l13.24-29.42a2.72,2.72,0,0,1,2.72-1.6,2.66,2.66,0,0,1,2.69,1.65l13.23,29.42a2.68,2.68,0,0,1,.31,1.24,2.93,2.93,0,0,1-2.86,3h-.14a2.7,2.7,0,0,1-2.63-1.71ZM254,60.79l-5.38,13.13h10.75Z"/><path class="cls-1" d="M275.8,87.47a3.23,3.23,0,0,1-3.21-3.21V55.41a3.22,3.22,0,0,1,3.21-3.2,3.13,3.13,0,0,1,3.1,3.16V84.26a3.14,3.14,0,0,1-3.07,3.21Z"/><path class="cls-1" d="M313.29,84.31a3.13,3.13,0,0,1-3.1,3.16h-.06a2.84,2.84,0,0,1-2.79-1.71l-6-12.46H290.9v11a3.16,3.16,0,0,1-6.31.36,2.16,2.16,0,0,1,0-.36V55.77a3.15,3.15,0,0,1,3.13-3.15H301c8.59,0,12.26,4.24,12.26,10.34,0,4-1.76,7.5-5.69,9.2L312.92,83A3,3,0,0,1,313.29,84.31Zm-11.38-25.9h-11v9.46h11a4.71,4.71,0,0,0,5-4.43c0-.14,0-.29,0-.43C306.93,60.74,305.38,58.41,301.91,58.41Z"/><path class="cls-1" d="M340.26,87.05H320.87a3.18,3.18,0,0,1-3.21-3.15h0V55.77a3.18,3.18,0,0,1,3.21-3.15h18.61a2.91,2.91,0,0,1,3,2.82v.08a3,3,0,0,1-3,2.94H324v8.22h13a3,3,0,0,1,3,2.95,2.9,2.9,0,0,1-2.9,2.9H324v8.68H340.3a3,3,0,0,1,3,3,2.92,2.92,0,0,1-3,2.84Z"/><path class="cls-1" d="M106.67,61.48a34.67,34.67,0,0,1-12.61,2.37c-1.17,0-2.33-.06-3.48-.17a37.35,37.35,0,1,1-30.95-31.2c-.1-1.07-.15-2.16-.15-3.26a34.63,34.63,0,0,1,2.45-12.8,53.62,53.62,0,1,0,45.31,53,54.47,54.47,0,0,0-.59-8Zm-17.4-3.39a28.5,28.5,0,0,0,4.79.4,29.13,29.13,0,0,0,11.53-2.37A53.17,53.17,0,0,0,96.92,37.8v1.85a2.86,2.86,0,0,1-5.71.34,1.93,1.93,0,0,1,0-.34V31.83H83.38a2.6,2.6,0,0,1-2.58-2.58,2.55,2.55,0,0,1,2.51-2.59H86a53.38,53.38,0,0,0-18.7-9.11,28.92,28.92,0,0,0-2.45,11.7,28.35,28.35,0,0,0,.37,4.6A37.52,37.52,0,0,1,89.27,58.09Z"/><path class="cls-1" d="M94.06,0a29.28,29.28,0,0,0-26.8,17.55,28.92,28.92,0,0,0-2.45,11.7,28.35,28.35,0,0,0,.37,4.6A29.31,29.31,0,0,0,89.27,58.09a28.5,28.5,0,0,0,4.79.4A29.25,29.25,0,0,0,94.06,0Zm10.68,31.83H96.92v7.82a2.86,2.86,0,0,1-5.71.34,1.93,1.93,0,0,1,0-.34V31.83H83.38a2.6,2.6,0,0,1-2.58-2.58,2.55,2.55,0,0,1,2.51-2.59h7.9V18.84a2.86,2.86,0,0,1,5.71-.34,1.93,1.93,0,0,1,0,.34v7.82h7.82a2.59,2.59,0,0,1,0,5.17Z"/></g></g></g></g></svg>