<?xml version="1.0" encoding="UTF-8"?><svg id="Layer_2" xmlns="http://www.w3.org/2000/svg" xmlns:xlink="http://www.w3.org/1999/xlink" viewBox="0 0 177 219.77"><defs><style>.cls-1{fill:url(#linear-gradient-2);}.cls-2{fill:#fff;}.cls-3{fill:url(#linear-gradient-3);}.cls-4{fill:url(#linear-gradient);}</style><linearGradient id="linear-gradient" x1="0" y1="112.71" x2="176.4" y2="112.71" gradientUnits="userSpaceOnUse"><stop offset="0" stop-color="#a329e9"/><stop offset="1" stop-color="#2b94fb"/></linearGradient><linearGradient id="linear-gradient-2" x1="62.88" y1="50.62" x2="113.5" y2="50.62" xlink:href="#linear-gradient"/><linearGradient id="linear-gradient-3" x1="26.7" y1="195.44" x2="177" y2="195.44" xlink:href="#linear-gradient"/></defs><g id="Layer_1-2"><g><g><path class="cls-4" d="M21.85,183.12c-3.04,3.04-4.93,7.23-4.93,11.85,0,9.23,7.55,16.78,16.77,16.78H167.19c-5.26,4.97-12.35,8.02-20.12,8.02H29.31c-16.18,0-29.31-13.15-29.31-29.33V34.96C0,18.81,13.13,5.65,29.31,5.65h23.51V25.77H29.31c-5.07,0-9.19,4.12-9.19,9.19v110.85H156.28V34.96c0-5.07-4.12-9.19-9.21-9.19h-23.52V5.65h23.52c16.17,0,29.33,13.16,29.33,29.31V178.19H33.69c-4.61,0-8.8,1.89-11.84,4.93Z"/><polygon class="cls-1" points="113.5 101.25 113.5 0 62.88 0 62.88 101.25 88.19 84.39 113.5 101.25"/></g><path class="cls-3" d="M173.5,198.94H30.2c-1.93,0-3.5-1.57-3.5-3.5s1.57-3.5,3.5-3.5H173.5c1.93,0,3.5,1.57,3.5,3.5s-1.57,3.5-3.5,3.5Z"/><circle class="cls-2" cx="89.03" cy="161.77" r="8.97"/></g></g></svg>
