<?xml version="1.0" encoding="UTF-8"?><svg id="Layer_2" xmlns="http://www.w3.org/2000/svg" xmlns:xlink="http://www.w3.org/1999/xlink" viewBox="0 0 270.79 245.58"><defs><style>.cls-1{fill:url(#linear-gradient);}</style><linearGradient id="linear-gradient" x1="0" y1="122.79" x2="270.79" y2="122.79" gradientUnits="userSpaceOnUse"><stop offset="0" stop-color="#a329e9"/><stop offset="1" stop-color="#2b94fb"/></linearGradient></defs><g id="Layer_1-2"><g><path class="cls-1" d="M236.59,30.03h-57.33v-8.37c0-11.95-9.72-21.67-21.67-21.67H61.74c-11.95,0-21.67,9.72-21.67,21.67V55.72h-12.65c-15.13,0-27.42,12.29-27.42,27.42V218.16c0,15.13,12.29,27.42,27.42,27.42H187.53c15.13,0,27.44-12.29,27.44-27.42v-6.9h21.63c18.85,0,34.2-15.33,34.2-34.2V64.23c0-18.85-15.35-34.2-34.2-34.2Zm-41.74,181.23v6.9c0,4.02-3.28,7.3-7.32,7.3H27.42c-4.02,0-7.3-3.28-7.3-7.3V83.14c0-4.02,3.28-7.3,7.3-7.3h31.97l.8,.48,12.87,7.74,16.72,10.06,16.74,10.06,.66,.4h80.35c4.04,0,7.32,3.28,7.32,7.32v99.36ZM60.19,21.67c0-.84,.68-1.55,1.55-1.55h95.86c.86,0,1.55,.7,1.55,1.55v60.85c0,.84-.68,1.55-1.55,1.55h-45.5l-25.97-15.67,37.68-.24,13.88-.08-12.73-12.57-15.57-15.37-26.41,26.41-17.98-10.82h-4.79V21.67ZM250.67,177.07c0,7.77-6.32,14.08-14.08,14.08h-21.63v-35.91h10.88c5.55,0,10.06-4.51,10.06-10.06s-4.51-10.06-10.06-10.06h-10.88v-17.32h10.88c5.55,0,10.06-4.49,10.06-10.06s-4.51-10.06-10.06-10.06h-14.87c-4.81-7.91-13.54-13.22-23.46-13.22h-8.37c.08-.64,.1-1.29,.1-1.95V50.15h57.33c7.76,0,14.08,6.32,14.08,14.08v112.83Z"/><path class="cls-1" d="M83.02,45.28c3.64,0,6.6-2.96,6.6-6.62s-2.96-6.62-6.6-6.62-6.62,2.98-6.62,6.62,2.96,6.62,6.62,6.62Z"/></g></g></svg>