<?xml version="1.0" encoding="UTF-8"?><svg id="Layer_2" xmlns="http://www.w3.org/2000/svg" xmlns:xlink="http://www.w3.org/1999/xlink" viewBox="0 0 269.92 218.61"><defs><style>.cls-1{fill:url(#linear-gradient);}</style><linearGradient id="linear-gradient" x1="-89.84" y1="121.73" x2="180.09" y2="121.73" gradientTransform="translate(89.84 -12.43)" gradientUnits="userSpaceOnUse"><stop offset="0" stop-color="#a329e9"/><stop offset="1" stop-color="#2b94fb"/></linearGradient></defs><g id="Layer_1-2"><g><g><g><path class="cls-1" d="M202.51,125.13c0,5.55-4.51,10.06-10.06,10.06h-35.38c-5.55,0-10.06-4.51-10.06-10.06s4.51-10.06,10.06-10.06h35.38c5.55,0,10.06,4.51,10.06,10.06Z"/><path class="cls-1" d="M202.51,96.82c0,5.55-4.51,10.06-10.06,10.06h-35.38c-5.55,0-10.06-4.51-10.06-10.06s4.51-10.06,10.06-10.06h35.38c5.55,0,10.06,4.51,10.06,10.06Z"/></g><g><path class="cls-1" d="M202.51,125.13c0,5.55-4.51,10.06-10.06,10.06h-35.38c-5.55,0-10.06-4.51-10.06-10.06s4.51-10.06,10.06-10.06h35.38c5.55,0,10.06,4.51,10.06,10.06Z"/><path class="cls-1" d="M202.51,96.82c0,5.55-4.51,10.06-10.06,10.06h-35.38c-5.55,0-10.06-4.51-10.06-10.06s4.51-10.06,10.06-10.06h35.38c5.55,0,10.06,4.51,10.06,10.06Z"/></g><g><path class="cls-1" d="M202.51,125.13c0,5.55-4.51,10.06-10.06,10.06h-35.38c-5.55,0-10.06-4.51-10.06-10.06s4.51-10.06,10.06-10.06h35.38c5.55,0,10.06,4.51,10.06,10.06Z"/><path class="cls-1" d="M202.51,96.82c0,5.55-4.51,10.06-10.06,10.06h-35.38c-5.55,0-10.06-4.51-10.06-10.06s4.51-10.06,10.06-10.06h35.38c5.55,0,10.06,4.51,10.06,10.06Z"/></g></g><g><g><path class="cls-1" d="M202.51,125.13c0,5.55-4.51,10.06-10.06,10.06h-35.38c-5.55,0-10.06-4.51-10.06-10.06s4.51-10.06,10.06-10.06h35.38c5.55,0,10.06,4.51,10.06,10.06Z"/><path class="cls-1" d="M202.51,96.82c0,5.55-4.51,10.06-10.06,10.06h-35.38c-5.55,0-10.06-4.51-10.06-10.06s4.51-10.06,10.06-10.06h35.38c5.55,0,10.06,4.51,10.06,10.06Z"/><path class="cls-1" d="M36.19,100.1v21.75c0,.68,.06,1.37,.16,2.01v-25.77c-.1,.64-.16,1.33-.16,2.01Zm0,0v21.75c0,.68,.06,1.37,.16,2.01v-25.77c-.1,.64-.16,1.33-.16,2.01Zm0,0v21.75c0,.68,.06,1.37,.16,2.01v-25.77c-.1,.64-.16,1.33-.16,2.01Z"/><path class="cls-1" d="M236.73,0H69.54c-18.31,0-33.19,14.89-33.19,33.19v2.19h-3.16C14.89,35.39,0,50.27,0,68.58v116.84c0,18.29,14.89,33.19,33.19,33.19H200.38c18.31,0,33.19-14.91,33.19-33.19v-2.19h3.16c18.29,0,33.19-14.89,33.19-33.19V33.19c0-18.31-14.91-33.19-33.19-33.19Zm-21.26,185.41c0,8.31-6.78,15.09-15.09,15.09H33.19c-8.31,0-15.09-6.78-15.09-15.09V68.58c0-8.33,6.78-15.09,15.09-15.09H200.38c8.31,0,15.09,6.76,15.09,15.09v116.84Zm36.35-35.39c0,8.31-6.78,15.09-15.09,15.09h-3.16V68.58c0-18.31-14.89-33.19-33.19-33.19H54.46v-2.19c0-8.33,6.78-15.09,15.09-15.09H236.73c8.31,0,15.09,6.76,15.09,15.09v116.84Z"/><path class="cls-1" d="M201.35,157.35c0,3.14-1.43,5.93-3.66,7.76-1.73,1.43-3.96,2.29-6.4,2.29H45.04c-1.55,0-3.04-.36-4.35-.99-3.38-1.61-5.71-5.07-5.71-9.07,0-1.89,.52-3.68,1.45-5.19,1.75-2.92,4.95-4.87,8.61-4.87H191.29c5.55,0,10.06,4.51,10.06,10.06Z"/></g><g><path class="cls-1" d="M202.51,125.13c0,5.55-4.51,10.06-10.06,10.06h-35.38c-5.55,0-10.06-4.51-10.06-10.06s4.51-10.06,10.06-10.06h35.38c5.55,0,10.06,4.51,10.06,10.06Z"/><path class="cls-1" d="M202.51,96.82c0,5.55-4.51,10.06-10.06,10.06h-35.38c-5.55,0-10.06-4.51-10.06-10.06s4.51-10.06,10.06-10.06h35.38c5.55,0,10.06,4.51,10.06,10.06Z"/><path class="cls-1" d="M36.19,100.1v21.75c0,.68,.06,1.37,.16,2.01v-25.77c-.1,.64-.16,1.33-.16,2.01Zm0,0v21.75c0,.68,.06,1.37,.16,2.01v-25.77c-.1,.64-.16,1.33-.16,2.01Zm0,0v21.75c0,.68,.06,1.37,.16,2.01v-25.77c-.1,.64-.16,1.33-.16,2.01Z"/><path class="cls-1" d="M236.73,0H69.54c-18.31,0-33.19,14.89-33.19,33.19v2.19h-3.16C14.89,35.39,0,50.27,0,68.58v116.84c0,18.29,14.89,33.19,33.19,33.19H200.38c18.31,0,33.19-14.91,33.19-33.19v-2.19h3.16c18.29,0,33.19-14.89,33.19-33.19V33.19c0-18.31-14.91-33.19-33.19-33.19Zm-21.26,185.41c0,8.31-6.78,15.09-15.09,15.09H33.19c-8.31,0-15.09-6.78-15.09-15.09V68.58c0-8.33,6.78-15.09,15.09-15.09H200.38c8.31,0,15.09,6.76,15.09,15.09v116.84Zm36.35-35.39c0,8.31-6.78,15.09-15.09,15.09h-3.16V68.58c0-18.31-14.89-33.19-33.19-33.19H54.46v-2.19c0-8.33,6.78-15.09,15.09-15.09H236.73c8.31,0,15.09,6.76,15.09,15.09v116.84Z"/><path class="cls-1" d="M201.35,157.35c0,3.14-1.43,5.93-3.66,7.76-1.73,1.43-3.96,2.29-6.4,2.29H45.04c-1.55,0-3.04-.36-4.35-.99-3.38-1.61-5.71-5.07-5.71-9.07,0-1.89,.52-3.68,1.45-5.19,1.75-2.92,4.95-4.87,8.61-4.87H191.29c5.55,0,10.06,4.51,10.06,10.06Z"/></g><g><path class="cls-1" d="M202.51,125.13c0,5.55-4.51,10.06-10.06,10.06h-35.38c-5.55,0-10.06-4.51-10.06-10.06s4.51-10.06,10.06-10.06h35.38c5.55,0,10.06,4.51,10.06,10.06Z"/><path class="cls-1" d="M202.51,96.82c0,5.55-4.51,10.06-10.06,10.06h-35.38c-5.55,0-10.06-4.51-10.06-10.06s4.51-10.06,10.06-10.06h35.38c5.55,0,10.06,4.51,10.06,10.06Z"/><path class="cls-1" d="M36.19,100.1v21.75c0,.68,.06,1.37,.16,2.01v-25.77c-.1,.64-.16,1.33-.16,2.01Zm0,0v21.75c0,.68,.06,1.37,.16,2.01v-25.77c-.1,.64-.16,1.33-.16,2.01Zm0,0v21.75c0,.68,.06,1.37,.16,2.01v-25.77c-.1,.64-.16,1.33-.16,2.01Z"/><path class="cls-1" d="M236.73,0H69.54c-18.31,0-33.19,14.89-33.19,33.19v2.19h-3.16C14.89,35.39,0,50.27,0,68.58v116.84c0,18.29,14.89,33.19,33.19,33.19H200.38c18.31,0,33.19-14.91,33.19-33.19v-2.19h3.16c18.29,0,33.19-14.89,33.19-33.19V33.19c0-18.31-14.91-33.19-33.19-33.19Zm-21.26,185.41c0,8.31-6.78,15.09-15.09,15.09H33.19c-8.31,0-15.09-6.78-15.09-15.09V68.58c0-8.33,6.78-15.09,15.09-15.09H200.38c8.31,0,15.09,6.76,15.09,15.09v116.84Zm36.35-35.39c0,8.31-6.78,15.09-15.09,15.09h-3.16V68.58c0-18.31-14.89-33.19-33.19-33.19H54.46v-2.19c0-8.33,6.78-15.09,15.09-15.09H236.73c8.31,0,15.09,6.76,15.09,15.09v116.84Z"/><path class="cls-1" d="M201.35,157.35c0,3.14-1.43,5.93-3.66,7.76-1.73,1.43-3.96,2.29-6.4,2.29H45.04c-1.55,0-3.04-.36-4.35-.99-3.38-1.61-5.71-5.07-5.71-9.07,0-1.89,.52-3.68,1.45-5.19,1.75-2.92,4.95-4.87,8.61-4.87H191.29c5.55,0,10.06,4.51,10.06,10.06Z"/></g></g><g><g><path class="cls-1" d="M136.43,100.1v21.75c0,7.32-5.97,13.3-13.3,13.3H49.49c-1.43,0-2.8-.22-4.08-.66-4.73-1.51-8.29-5.61-9.05-10.62v-25.77c.76-5.01,4.32-9.13,9.05-10.64,1.29-.44,2.66-.66,4.08-.66H123.13c7.32,0,13.3,5.99,13.3,13.32Z"/><path class="cls-1" d="M36.35,98.09v25.77c-.1-.64-.16-1.33-.16-2.01v-21.75c0-.68,.06-1.37,.16-2.01Z"/></g><g><path class="cls-1" d="M136.43,100.1v21.75c0,7.32-5.97,13.3-13.3,13.3H49.49c-1.43,0-2.8-.22-4.08-.66-4.73-1.51-8.29-5.61-9.05-10.62v-25.77c.76-5.01,4.32-9.13,9.05-10.64,1.29-.44,2.66-.66,4.08-.66H123.13c7.32,0,13.3,5.99,13.3,13.32Z"/><path class="cls-1" d="M36.35,98.09v25.77c-.1-.64-.16-1.33-.16-2.01v-21.75c0-.68,.06-1.37,.16-2.01Z"/></g><g><path class="cls-1" d="M136.43,100.1v21.75c0,7.32-5.97,13.3-13.3,13.3H49.49c-1.43,0-2.8-.22-4.08-.66-4.73-1.51-8.29-5.61-9.05-10.62v-25.77c.76-5.01,4.32-9.13,9.05-10.64,1.29-.44,2.66-.66,4.08-.66H123.13c7.32,0,13.3,5.99,13.3,13.32Z"/><path class="cls-1" d="M36.35,98.09v25.77c-.1-.64-.16-1.33-.16-2.01v-21.75c0-.68,.06-1.37,.16-2.01Z"/></g></g><g><path class="cls-1" d="M202.51,96.82c0,5.55-4.51,10.06-10.06,10.06h-35.38c-5.55,0-10.06-4.51-10.06-10.06s4.51-10.06,10.06-10.06h35.38c5.55,0,10.06,4.51,10.06,10.06Z"/><path class="cls-1" d="M202.51,96.82c0,5.55-4.51,10.06-10.06,10.06h-35.38c-5.55,0-10.06-4.51-10.06-10.06s4.51-10.06,10.06-10.06h35.38c5.55,0,10.06,4.51,10.06,10.06Z"/><path class="cls-1" d="M202.51,96.82c0,5.55-4.51,10.06-10.06,10.06h-35.38c-5.55,0-10.06-4.51-10.06-10.06s4.51-10.06,10.06-10.06h35.38c5.55,0,10.06,4.51,10.06,10.06Z"/></g><g><path class="cls-1" d="M202.51,125.13c0,5.55-4.51,10.06-10.06,10.06h-35.38c-5.55,0-10.06-4.51-10.06-10.06s4.51-10.06,10.06-10.06h35.38c5.55,0,10.06,4.51,10.06,10.06Z"/><path class="cls-1" d="M202.51,125.13c0,5.55-4.51,10.06-10.06,10.06h-35.38c-5.55,0-10.06-4.51-10.06-10.06s4.51-10.06,10.06-10.06h35.38c5.55,0,10.06,4.51,10.06,10.06Z"/><path class="cls-1" d="M202.51,125.13c0,5.55-4.51,10.06-10.06,10.06h-35.38c-5.55,0-10.06-4.51-10.06-10.06s4.51-10.06,10.06-10.06h35.38c5.55,0,10.06,4.51,10.06,10.06Z"/></g></g></g></svg>